<?xml version="1.0" encoding="UTF-8" standalone="no"?>
<!-- Created with Inkscape (http://www.inkscape.org/) -->

<svg
   xmlns:dc="http://purl.org/dc/elements/1.1/"
   xmlns:cc="http://creativecommons.org/ns#"
   xmlns:rdf="http://www.w3.org/1999/02/22-rdf-syntax-ns#"
   xmlns:svg="http://www.w3.org/2000/svg"
   xmlns="http://www.w3.org/2000/svg"
   xmlns:xlink="http://www.w3.org/1999/xlink"
   xmlns:sodipodi="http://sodipodi.sourceforge.net/DTD/sodipodi-0.dtd"
   xmlns:inkscape="http://www.inkscape.org/namespaces/inkscape"
   width="1024"
   height="500"
   viewBox="0 0 1024 500.00001"
   id="svg2"
   version="1.1"
   inkscape:version="0.91 r13725"
   sodipodi:docname="Feature.svg">
  <defs
     id="defs4">
    <linearGradient
       inkscape:collect="always"
       xlink:href="#linearGradient4212"
       id="linearGradient4218"
       x1="231.87369"
       y1="672.36804"
       x2="234.5253"
       y2="832.8446"
       gradientUnits="userSpaceOnUse" />
    <linearGradient
       inkscape:collect="always"
       id="linearGradient4212">
      <stop
         style="stop-color:#000000;stop-opacity:1"
         offset="0"
         id="stop4214" />
      <stop
         style="stop-color:#000000;stop-opacity:0"
         offset="1"
         id="stop4216" />
    </linearGradient>
    <linearGradient
       inkscape:collect="always"
       xlink:href="#linearGradient4212"
       id="linearGradient4210"
       gradientUnits="userSpaceOnUse"
       x1="231.87369"
       y1="672.36804"
       x2="234.5253"
       y2="832.8446" />
    <linearGradient
       inkscape:collect="always"
       xlink:href="#linearGradient4212"
       id="linearGradient4213"
       gradientUnits="userSpaceOnUse"
       x1="231.87369"
       y1="672.36804"
       x2="234.5253"
       y2="832.8446" />
    <linearGradient
       inkscape:collect="always"
       xlink:href="#linearGradient4212"
       id="linearGradient4215"
       gradientUnits="userSpaceOnUse"
       x1="231.87369"
       y1="672.36804"
       x2="234.5253"
       y2="832.8446" />
    <linearGradient
       inkscape:collect="always"
       xlink:href="#linearGradient4212"
       id="linearGradient4217"
       gradientUnits="userSpaceOnUse"
       x1="231.87369"
       y1="672.36804"
       x2="234.5253"
       y2="832.8446" />
    <linearGradient
       inkscape:collect="always"
       xlink:href="#linearGradient4212"
       id="linearGradient4219"
       gradientUnits="userSpaceOnUse"
       x1="231.87369"
       y1="672.36804"
       x2="234.5253"
       y2="832.8446" />
    <linearGradient
       inkscape:collect="always"
       xlink:href="#linearGradient4212"
       id="linearGradient4221"
       gradientUnits="userSpaceOnUse"
       x1="231.87369"
       y1="672.36804"
       x2="234.5253"
       y2="832.8446" />
  </defs>
  <sodipodi:namedview
     id="base"
     pagecolor="#ffffff"
     bordercolor="#666666"
     borderopacity="1.0"
     inkscape:pageopacity="1"
     inkscape:pageshadow="2"
     inkscape:zoom="1.4"
     inkscape:cx="488.3736"
     inkscape:cy="279.96788"
     inkscape:document-units="px"
     inkscape:current-layer="layer1"
     showgrid="false"
     units="px"
     inkscape:window-width="1920"
     inkscape:window-height="1017"
     inkscape:window-x="1272"
     inkscape:window-y="-8"
     inkscape:window-maximized="1" />
  <metadata
     id="metadata7">
    <rdf:RDF>
      <cc:Work
         rdf:about="">
        <dc:format>image/svg+xml</dc:format>
        <dc:type
           rdf:resource="http://purl.org/dc/dcmitype/StillImage" />
        <dc:title></dc:title>
      </cc:Work>
    </rdf:RDF>
  </metadata>
  <g
     inkscape:label="Layer 1"
     inkscape:groupmode="layer"
     id="layer1"
     transform="translate(0,-552.36216)">
    <text
       xml:space="preserve"
       style="font-style:normal;font-variant:normal;font-weight:normal;font-stretch:normal;font-size:195.52735901px;line-height:125%;font-family:Comfortaa;-inkscape-font-specification:'Comfortaa, Normal';text-align:start;letter-spacing:0px;word-spacing:0px;writing-mode:lr-tb;text-anchor:start;fill:#000000;fill-opacity:1;stroke:none;stroke-width:1px;stroke-linecap:butt;stroke-linejoin:miter;stroke-opacity:1"
       x="19.626163"
       y="869.84729"
       id="text4136"
       sodipodi:linespacing="125%"><tspan
         sodipodi:role="line"
         id="tspan4138"
         x="19.626163"
         y="869.84729"
         style="font-style:normal;font-variant:normal;font-weight:normal;font-stretch:normal;font-size:195.52735901px;line-height:125%;font-family:Comfortaa;-inkscape-font-specification:'Comfortaa, Normal';text-align:start;writing-mode:lr-tb;text-anchor:start">Scattered</tspan></text>
    <g
       transform="matrix(0.5452116,1.0852336,-1.0852336,0.5452116,1063.864,349.1781)"
       style="display:inline"
       id="g4242">
      <path
         sodipodi:nodetypes="cccc"
         inkscape:connector-curvature="0"
         id="path4210"
         d="m 204.7995,663.1631 c 15.41836,9.5284 32.84226,13.89972 57.61564,-0.62762 l -27.6299,118.79707 z"
         style="fill:url(#linearGradient4218);fill-opacity:1;fill-rule:evenodd;stroke:none;stroke-width:1px;stroke-linecap:butt;stroke-linejoin:miter;stroke-opacity:1" />
      <path
         d="m 273.22596,625.57269 a 40.406101,40.406101 0 0 1 -40.40258,40.4061 40.406101,40.406101 0 0 1 -40.40963,-40.39904 40.406101,40.406101 0 0 1 40.39553,-40.41316 40.406101,40.406101 0 0 1 40.41667,40.392"
         sodipodi:open="true"
         sodipodi:end="6.2828362"
         sodipodi:start="0"
         sodipodi:ry="40.406101"
         sodipodi:rx="40.406101"
         sodipodi:cy="625.57269"
         sodipodi:cx="232.81985"
         sodipodi:type="arc"
         id="path4220"
         style="opacity:1;fill:#1e88e5;fill-opacity:1;stroke:none;stroke-width:1;stroke-linecap:butt;stroke-linejoin:miter;stroke-miterlimit:4;stroke-dasharray:none;stroke-opacity:1" />
    </g>
    <g
       id="g4174"
       style="display:inline"
       transform="matrix(-0.84259537,0.50419602,-0.50419602,-0.84259537,1391.0009,1117.3228)">
      <path
         style="fill:url(#linearGradient4221);fill-opacity:1;fill-rule:evenodd;stroke:none;stroke-width:1px;stroke-linecap:butt;stroke-linejoin:miter;stroke-opacity:1"
         d="m 204.7995,663.1631 c 15.41836,9.5284 32.84226,13.89972 57.61564,-0.62762 l -27.6299,118.79707 z"
         id="path4176"
         inkscape:connector-curvature="0"
         sodipodi:nodetypes="cccc" />
      <path
         style="opacity:1;fill:#43a047;fill-opacity:1;stroke:none;stroke-width:1;stroke-linecap:butt;stroke-linejoin:miter;stroke-miterlimit:4;stroke-dasharray:none;stroke-opacity:1"
         id="path4178"
         sodipodi:type="arc"
         sodipodi:cx="232.81985"
         sodipodi:cy="625.57269"
         sodipodi:rx="40.406101"
         sodipodi:ry="40.406101"
         sodipodi:start="0"
         sodipodi:end="6.2828362"
         sodipodi:open="true"
         d="m 273.22596,625.57269 a 40.406101,40.406101 0 0 1 -40.40258,40.4061 40.406101,40.406101 0 0 1 -40.40963,-40.39904 40.406101,40.406101 0 0 1 40.39553,-40.41316 40.406101,40.406101 0 0 1 40.41667,40.392" />
    </g>
    <g
       transform="matrix(0.69966358,-0.86483969,0.86483969,0.69966358,37.957762,708.15222)"
       style="display:inline"
       id="g4180">
      <g
         id="g4223"
         transform="matrix(0.97957639,-0.20107237,0.20107237,0.97957639,-142.41643,45.118387)">
        <path
           style="fill:url(#linearGradient4219);fill-opacity:1;fill-rule:evenodd;stroke:none;stroke-width:1px;stroke-linecap:butt;stroke-linejoin:miter;stroke-opacity:1"
           d="m 204.7995,663.1631 c 15.41836,9.5284 32.84226,13.89972 57.61564,-0.62762 l -27.6299,118.79707 z"
           id="path4182"
           inkscape:connector-curvature="0"
           sodipodi:nodetypes="cccc" />
        <path
           style="opacity:1;fill:#8e24aa;fill-opacity:1;stroke:none;stroke-width:1;stroke-linecap:butt;stroke-linejoin:miter;stroke-miterlimit:4;stroke-dasharray:none;stroke-opacity:1"
           id="path4184"
           sodipodi:type="arc"
           sodipodi:cx="232.81985"
           sodipodi:cy="625.57269"
           sodipodi:rx="40.406101"
           sodipodi:ry="40.406101"
           sodipodi:start="0"
           sodipodi:end="6.2828362"
           sodipodi:open="true"
           d="m 273.22596,625.57269 a 40.406101,40.406101 0 0 1 -40.40258,40.4061 40.406101,40.406101 0 0 1 -40.40963,-40.39904 40.406101,40.406101 0 0 1 40.39553,-40.41316 40.406101,40.406101 0 0 1 40.41667,40.392" />
      </g>
    </g>
    <g
       id="g4186"
       style="display:inline"
       transform="matrix(0.29694087,-1.109996,1.109996,0.29694087,-665.11634,702.73646)">
      <path
         style="fill:url(#linearGradient4217);fill-opacity:1;fill-rule:evenodd;stroke:none;stroke-width:1px;stroke-linecap:butt;stroke-linejoin:miter;stroke-opacity:1"
         d="m 204.7995,663.1631 c 15.41836,9.5284 32.84226,13.89972 57.61564,-0.62762 l -27.6299,118.79707 z"
         id="path4188"
         inkscape:connector-curvature="0"
         sodipodi:nodetypes="cccc" />
      <path
         style="opacity:1;fill:#e53935;fill-opacity:1;stroke:none;stroke-width:1;stroke-linecap:butt;stroke-linejoin:miter;stroke-miterlimit:4;stroke-dasharray:none;stroke-opacity:1"
         id="path4190"
         sodipodi:type="arc"
         sodipodi:cx="232.81985"
         sodipodi:cy="625.57269"
         sodipodi:rx="40.406101"
         sodipodi:ry="40.406101"
         sodipodi:start="0"
         sodipodi:end="6.2828362"
         sodipodi:open="true"
         d="m 273.22596,625.57269 a 40.406101,40.406101 0 0 1 -40.40258,40.4061 40.406101,40.406101 0 0 1 -40.40963,-40.39904 40.406101,40.406101 0 0 1 40.39553,-40.41316 40.406101,40.406101 0 0 1 40.41667,40.392" />
    </g>
    <g
       transform="matrix(0.38996751,-0.54310994,0.54310994,0.38996751,188.3817,547.30498)"
       style="display:inline"
       id="g4192">
      <path
         sodipodi:nodetypes="cccc"
         inkscape:connector-curvature="0"
         id="path4194"
         d="m 204.7995,663.1631 c 15.41836,9.5284 32.84226,13.89972 57.61564,-0.62762 l -27.6299,118.79707 z"
         style="fill:url(#linearGradient4215);fill-opacity:1;fill-rule:evenodd;stroke:none;stroke-width:1px;stroke-linecap:butt;stroke-linejoin:miter;stroke-opacity:1" />
      <path
         d="m 273.22596,625.57269 a 40.406101,40.406101 0 0 1 -40.40258,40.4061 40.406101,40.406101 0 0 1 -40.40963,-40.39904 40.406101,40.406101 0 0 1 40.39553,-40.41316 40.406101,40.406101 0 0 1 40.41667,40.392"
         sodipodi:open="true"
         sodipodi:end="6.2828362"
         sodipodi:start="0"
         sodipodi:ry="40.406101"
         sodipodi:rx="40.406101"
         sodipodi:cy="625.57269"
         sodipodi:cx="232.81985"
         sodipodi:type="arc"
         id="path4196"
         style="opacity:1;fill:#ffb300;fill-opacity:1;stroke:none;stroke-width:1;stroke-linecap:butt;stroke-linejoin:miter;stroke-miterlimit:4;stroke-dasharray:none;stroke-opacity:1" />
    </g>
    <g
       id="g4198"
       style="display:inline"
       transform="matrix(0.60529206,0.48921366,-0.48921366,0.60529206,561.03543,113.84388)">
      <path
         style="fill:url(#linearGradient4213);fill-opacity:1;fill-rule:evenodd;stroke:none;stroke-width:1px;stroke-linecap:butt;stroke-linejoin:miter;stroke-opacity:1"
         d="m 204.7995,663.1631 c 15.41836,9.5284 32.84226,13.89972 57.61564,-0.62762 l -27.6299,118.79707 z"
         id="path4200"
         inkscape:connector-curvature="0"
         sodipodi:nodetypes="cccc" />
      <path
         style="opacity:1;fill:#00897b;fill-opacity:1;stroke:none;stroke-width:1;stroke-linecap:butt;stroke-linejoin:miter;stroke-miterlimit:4;stroke-dasharray:none;stroke-opacity:1"
         id="path4202"
         sodipodi:type="arc"
         sodipodi:cx="232.81985"
         sodipodi:cy="625.57269"
         sodipodi:rx="40.406101"
         sodipodi:ry="40.406101"
         sodipodi:start="0"
         sodipodi:end="6.2828362"
         sodipodi:open="true"
         d="m 273.22596,625.57269 a 40.406101,40.406101 0 0 1 -40.40258,40.4061 40.406101,40.406101 0 0 1 -40.40963,-40.39904 40.406101,40.406101 0 0 1 40.39553,-40.41316 40.406101,40.406101 0 0 1 40.41667,40.392" />
    </g>
    <g
       transform="matrix(-0.77488745,0.34346696,-0.34346696,-0.77488745,597.28498,1404.092)"
       style="display:inline"
       id="g4204">
      <path
         sodipodi:nodetypes="cccc"
         inkscape:connector-curvature="0"
         id="path4206"
         d="m 204.7995,663.1631 c 15.41836,9.5284 32.84226,13.89972 57.61564,-0.62762 l -27.6299,118.79707 z"
         style="fill:url(#linearGradient4210);fill-opacity:1;fill-rule:evenodd;stroke:none;stroke-width:1px;stroke-linecap:butt;stroke-linejoin:miter;stroke-opacity:1" />
      <path
         d="m 273.22596,625.57269 a 40.406101,40.406101 0 0 1 -40.40258,40.4061 40.406101,40.406101 0 0 1 -40.40963,-40.39904 40.406101,40.406101 0 0 1 40.39553,-40.41316 40.406101,40.406101 0 0 1 40.41667,40.392"
         sodipodi:open="true"
         sodipodi:end="6.2828362"
         sodipodi:start="0"
         sodipodi:ry="40.406101"
         sodipodi:rx="40.406101"
         sodipodi:cy="625.57269"
         sodipodi:cx="232.81985"
         sodipodi:type="arc"
         id="path4208"
         style="opacity:1;fill:#6d4c41;fill-opacity:1;stroke:none;stroke-width:1;stroke-linecap:butt;stroke-linejoin:miter;stroke-miterlimit:4;stroke-dasharray:none;stroke-opacity:1" />
    </g>
  </g>
</svg>
